<svg xmlns="http://www.w3.org/2000/svg" width="1200" height="630" viewBox="0 0 1200 630" role="img" aria-label="Hoshivel — 少做，做好，做久">
  <defs>
    <linearGradient id="mw" x1="0" y1="1" x2="1" y2="0">
      <stop offset="0.30" stop-color="#96b0eb" stop-opacity="0"/>
      <stop offset="0.52" stop-color="#b2c8ff" stop-opacity="0.085"/>
      <stop offset="0.74" stop-color="#96b0eb" stop-opacity="0"/>
    </linearGradient>
    <radialGradient id="vig" cx="0.5" cy="0.42" r="0.78">
      <stop offset="0.45" stop-color="#04060d" stop-opacity="0"/>
      <stop offset="1" stop-color="#04060d" stop-opacity="0.75"/>
    </radialGradient>
  </defs>

  <!-- 夜 -->
  <rect width="1200" height="630" fill="#080b15"/>
  <rect width="1200" height="630" fill="url(#mw)"/>
  <circle cx="479.2" cy="270.2" r="0.6" fill="#dfe8ff" opacity="0.16"/><circle cx="338.2" cy="149.3" r="0.84" fill="#dfe8ff" opacity="0.26"/><circle cx="121.7" cy="273.1" r="1.51" fill="#dfe8ff" opacity="0.53"/><circle cx="729.8" cy="595.9" r="1.01" fill="#dfe8ff" opacity="0.33"/><circle cx="411.4" cy="363.0" r="0.65" fill="#dfe8ff" opacity="0.18"/><circle cx="770.5" cy="200.1" r="0.71" fill="#dfe8ff" opacity="0.2"/><circle cx="9.6" cy="544.5" r="0.6" fill="#dfe8ff" opacity="0.16"/><circle cx="1125.8" cy="2.7" r="0.6" fill="#dfe8ff" opacity="0.16"/><circle cx="700.6" cy="301.5" r="1.8" fill="#dfe8ff" opacity="0.65"/><circle cx="60.1" cy="546.0" r="1.96" fill="#dfe8ff" opacity="0.72"/><circle cx="683.7" cy="291.6" r="0.92" fill="#dfe8ff" opacity="0.29"/><circle cx="869.5" cy="135.2" r="0.66" fill="#dfe8ff" opacity="0.19"/><circle cx="260.5" cy="416.0" r="0.79" fill="#dfe8ff" opacity="0.24"/><circle cx="652.7" cy="239.0" r="0.64" fill="#dfe8ff" opacity="0.18"/><circle cx="922.9" cy="188.6" r="1.65" fill="#dfe8ff" opacity="0.59"/><circle cx="984.1" cy="245.2" r="0.61" fill="#dfe8ff" opacity="0.16"/><circle cx="52.5" cy="390.9" r="0.85" fill="#dfe8ff" opacity="0.26"/><circle cx="347.7" cy="76.2" r="0.85" fill="#dfe8ff" opacity="0.26"/><circle cx="370.5" cy="336.8" r="1.29" fill="#dfe8ff" opacity="0.44"/><circle cx="755.0" cy="295.8" r="1.04" fill="#dfe8ff" opacity="0.34"/><circle cx="411.4" cy="146.6" r="1.51" fill="#dfe8ff" opacity="0.53"/><circle cx="425.6" cy="335.2" r="0.89" fill="#dfe8ff" opacity="0.28"/><circle cx="815.4" cy="144.9" r="0.88" fill="#dfe8ff" opacity="0.27"/><circle cx="642.2" cy="289.1" r="1.12" fill="#dfe8ff" opacity="0.37"/><circle cx="827.8" cy="314.3" r="0.9" fill="#dfe8ff" opacity="0.28"/><circle cx="232.2" cy="414.7" r="1.54" fill="#dfe8ff" opacity="0.55"/><circle cx="411.0" cy="419.7" r="1.77" fill="#dfe8ff" opacity="0.64"/><circle cx="1012.5" cy="202.3" r="1.25" fill="#dfe8ff" opacity="0.43"/><circle cx="577.4" cy="367.8" r="1.32" fill="#dfe8ff" opacity="0.46"/><circle cx="524.7" cy="255.0" r="2.17" fill="#dfe8ff" opacity="0.81"/><circle cx="1158.0" cy="480.5" r="0.62" fill="#dfe8ff" opacity="0.17"/><circle cx="169.0" cy="544.6" r="0.95" fill="#dfe8ff" opacity="0.31"/><circle cx="217.9" cy="555.3" r="1.53" fill="#dfe8ff" opacity="0.54"/><circle cx="977.8" cy="503.8" r="0.6" fill="#dfe8ff" opacity="0.16"/><circle cx="293.1" cy="455.4" r="1.1" fill="#dfe8ff" opacity="0.36"/><circle cx="1011.5" cy="172.2" r="0.65" fill="#dfe8ff" opacity="0.18"/><circle cx="1067.6" cy="164.0" r="1.92" fill="#dfe8ff" opacity="0.7"/><circle cx="359.9" cy="390.0" r="0.64" fill="#dfe8ff" opacity="0.18"/><circle cx="1148.5" cy="79.8" r="1.69" fill="#dfe8ff" opacity="0.61"/><circle cx="43.0" cy="541.4" r="1.77" fill="#dfe8ff" opacity="0.64"/><circle cx="2.1" cy="522.2" r="0.6" fill="#dfe8ff" opacity="0.16"/><circle cx="437.7" cy="537.0" r="1.0" fill="#dfe8ff" opacity="0.32"/><circle cx="330.7" cy="214.9" r="0.81" fill="#dfe8ff" opacity="0.25"/><circle cx="329.4" cy="464.1" r="0.61" fill="#dfe8ff" opacity="0.16"/><circle cx="780.7" cy="240.2" r="0.61" fill="#dfe8ff" opacity="0.16"/><circle cx="542.0" cy="256.2" r="0.6" fill="#dfe8ff" opacity="0.16"/><circle cx="473.4" cy="13.0" r="1.12" fill="#dfe8ff" opacity="0.37"/><circle cx="235.7" cy="625.8" r="1.85" fill="#dfe8ff" opacity="0.68"/><circle cx="63.1" cy="518.3" r="0.96" fill="#dfe8ff" opacity="0.31"/><circle cx="157.8" cy="514.6" r="0.99" fill="#dfe8ff" opacity="0.32"/><circle cx="475.0" cy="385.9" r="1.56" fill="#dfe8ff" opacity="0.55"/><circle cx="763.1" cy="310.0" r="2.05" fill="#dfe8ff" opacity="0.76"/><circle cx="983.2" cy="607.7" r="0.88" fill="#dfe8ff" opacity="0.28"/><circle cx="271.0" cy="212.6" r="1.36" fill="#dfe8ff" opacity="0.47"/><circle cx="702.7" cy="259.6" r="0.83" fill="#dfe8ff" opacity="0.25"/><circle cx="1067.7" cy="39.5" r="0.69" fill="#dfe8ff" opacity="0.2"/><circle cx="0.6" cy="569.2" r="0.6" fill="#dfe8ff" opacity="0.16"/><circle cx="422.3" cy="503.2" r="0.61" fill="#dfe8ff" opacity="0.17"/><circle cx="185.8" cy="76.9" r="1.86" fill="#dfe8ff" opacity="0.68"/><circle cx="552.9" cy="343.6" r="0.79" fill="#dfe8ff" opacity="0.24"/><circle cx="1031.4" cy="363.9" r="1.37" fill="#dfe8ff" opacity="0.48"/><circle cx="438.9" cy="420.2" r="0.6" fill="#dfe8ff" opacity="0.16"/><circle cx="656.4" cy="309.3" r="0.77" fill="#dfe8ff" opacity="0.23"/><circle cx="1127.3" cy="277.2" r="0.65" fill="#dfe8ff" opacity="0.18"/><circle cx="262.5" cy="544.6" r="1.06" fill="#dfe8ff" opacity="0.35"/><circle cx="209.0" cy="337.1" r="2.18" fill="#dfe8ff" opacity="0.81"/><circle cx="833.5" cy="22.3" r="1.88" fill="#dfe8ff" opacity="0.69"/><circle cx="325.6" cy="334.9" r="0.6" fill="#dfe8ff" opacity="0.16"/><circle cx="159.5" cy="390.3" r="0.72" fill="#dfe8ff" opacity="0.21"/><circle cx="963.4" cy="74.1" r="1.71" fill="#dfe8ff" opacity="0.62"/><circle cx="527.6" cy="313.1" r="0.76" fill="#dfe8ff" opacity="0.23"/><circle cx="1056.7" cy="337.5" r="0.85" fill="#dfe8ff" opacity="0.26"/><circle cx="50.5" cy="408.8" r="0.6" fill="#dfe8ff" opacity="0.16"/><circle cx="757.8" cy="154.9" r="0.72" fill="#dfe8ff" opacity="0.21"/><circle cx="227.4" cy="497.7" r="0.69" fill="#dfe8ff" opacity="0.2"/><circle cx="578.8" cy="38.5" r="1.99" fill="#dfe8ff" opacity="0.73"/><circle cx="585.5" cy="407.5" r="1.85" fill="#dfe8ff" opacity="0.68"/><circle cx="49.2" cy="481.6" r="0.6" fill="#dfe8ff" opacity="0.16"/><circle cx="413.9" cy="333.3" r="0.74" fill="#dfe8ff" opacity="0.22"/><circle cx="765.4" cy="293.0" r="0.86" fill="#dfe8ff" opacity="0.27"/><circle cx="749.5" cy="374.9" r="1.53" fill="#dfe8ff" opacity="0.54"/><circle cx="785.0" cy="233.7" r="0.6" fill="#dfe8ff" opacity="0.16"/><circle cx="24.0" cy="568.6" r="0.83" fill="#dfe8ff" opacity="0.26"/><circle cx="233.7" cy="433.1" r="0.73" fill="#dfe8ff" opacity="0.21"/><circle cx="729.5" cy="297.3" r="2.18" fill="#dfe8ff" opacity="0.81"/><circle cx="287.6" cy="351.0" r="0.69" fill="#dfe8ff" opacity="0.2"/><circle cx="707.9" cy="334.3" r="0.6" fill="#dfe8ff" opacity="0.16"/><circle cx="100.8" cy="439.9" r="0.68" fill="#dfe8ff" opacity="0.19"/><circle cx="931.4" cy="238.2" r="2.04" fill="#dfe8ff" opacity="0.75"/><circle cx="9.2" cy="587.8" r="1.77" fill="#dfe8ff" opacity="0.64"/><circle cx="233.5" cy="540.7" r="0.95" fill="#dfe8ff" opacity="0.31"/><circle cx="524.1" cy="51.5" r="0.77" fill="#dfe8ff" opacity="0.23"/><circle cx="906.7" cy="0.1" r="0.62" fill="#dfe8ff" opacity="0.17"/><circle cx="860.3" cy="600.6" r="0.6" fill="#dfe8ff" opacity="0.16"/><circle cx="629.1" cy="191.5" r="1.69" fill="#dfe8ff" opacity="0.61"/><circle cx="913.1" cy="233.9" r="0.6" fill="#dfe8ff" opacity="0.16"/><circle cx="398.0" cy="361.3" r="0.62" fill="#dfe8ff" opacity="0.17"/><circle cx="876.5" cy="508.0" r="1.81" fill="#dfe8ff" opacity="0.66"/><circle cx="54.8" cy="586.3" r="0.61" fill="#dfe8ff" opacity="0.16"/><circle cx="710.6" cy="372.4" r="1.97" fill="#dfe8ff" opacity="0.72"/><circle cx="619.4" cy="298.9" r="0.75" fill="#dfe8ff" opacity="0.22"/><circle cx="556.7" cy="315.6" r="0.61" fill="#dfe8ff" opacity="0.17"/><circle cx="1008.2" cy="451.2" r="1.2" fill="#dfe8ff" opacity="0.41"/><circle cx="644.9" cy="338.9" r="0.69" fill="#dfe8ff" opacity="0.2"/><circle cx="610.7" cy="321.9" r="0.62" fill="#dfe8ff" opacity="0.17"/><circle cx="761.1" cy="106.2" r="0.89" fill="#dfe8ff" opacity="0.28"/><circle cx="601.7" cy="302.6" r="2.08" fill="#dfe8ff" opacity="0.77"/><circle cx="1125.2" cy="164.7" r="0.96" fill="#dfe8ff" opacity="0.31"/><circle cx="638.4" cy="17.6" r="0.99" fill="#dfe8ff" opacity="0.32"/><circle cx="884.8" cy="58.3" r="0.6" fill="#dfe8ff" opacity="0.16"/><circle cx="764.8" cy="245.0" r="0.91" fill="#dfe8ff" opacity="0.29"/><circle cx="1059.3" cy="568.6" r="0.79" fill="#dfe8ff" opacity="0.24"/><circle cx="867.1" cy="343.9" r="0.62" fill="#dfe8ff" opacity="0.17"/><circle cx="1021.4" cy="255.1" r="0.6" fill="#dfe8ff" opacity="0.16"/><circle cx="481.2" cy="335.8" r="2.08" fill="#dfe8ff" opacity="0.77"/><circle cx="1008.7" cy="625.3" r="1.24" fill="#dfe8ff" opacity="0.42"/><circle cx="388.6" cy="418.6" r="0.63" fill="#dfe8ff" opacity="0.17"/><circle cx="452.5" cy="286.2" r="0.79" fill="#dfe8ff" opacity="0.24"/><circle cx="976.7" cy="264.7" r="0.63" fill="#dfe8ff" opacity="0.17"/><circle cx="0.2" cy="69.9" r="0.67" fill="#dfe8ff" opacity="0.19"/><circle cx="775.2" cy="429.5" r="1.23" fill="#dfe8ff" opacity="0.42"/><circle cx="38.8" cy="399.0" r="1.14" fill="#dfe8ff" opacity="0.38"/><circle cx="554.3" cy="302.1" r="0.6" fill="#dfe8ff" opacity="0.16"/><circle cx="438.1" cy="600.6" r="1.12" fill="#dfe8ff" opacity="0.38"/><circle cx="406.3" cy="25.7" r="0.61" fill="#dfe8ff" opacity="0.16"/><circle cx="635.5" cy="532.7" r="0.65" fill="#dfe8ff" opacity="0.18"/><circle cx="189.1" cy="535.3" r="0.68" fill="#dfe8ff" opacity="0.19"/><circle cx="520.7" cy="287.8" r="0.61" fill="#dfe8ff" opacity="0.16"/><circle cx="184.8" cy="625.0" r="1.37" fill="#dfe8ff" opacity="0.48"/><circle cx="873.8" cy="263.7" r="0.65" fill="#dfe8ff" opacity="0.18"/><circle cx="641.2" cy="389.1" r="0.6" fill="#dfe8ff" opacity="0.16"/><circle cx="1030.7" cy="78.7" r="0.6" fill="#dfe8ff" opacity="0.16"/><circle cx="1030.3" cy="105.3" r="1.35" fill="#dfe8ff" opacity="0.47"/><circle cx="188.1" cy="442.0" r="0.87" fill="#dfe8ff" opacity="0.27"/><circle cx="669.5" cy="309.0" r="0.83" fill="#dfe8ff" opacity="0.25"/><circle cx="808.7" cy="127.2" r="0.61" fill="#dfe8ff" opacity="0.16"/><circle cx="145.3" cy="594.6" r="1.14" fill="#dfe8ff" opacity="0.38"/><circle cx="1004.6" cy="240.2" r="0.69" fill="#dfe8ff" opacity="0.2"/><circle cx="256.5" cy="543.3" r="0.68" fill="#dfe8ff" opacity="0.19"/><circle cx="136.5" cy="532.0" r="1.19" fill="#dfe8ff" opacity="0.4"/><circle cx="743.9" cy="101.9" r="0.65" fill="#dfe8ff" opacity="0.18"/><circle cx="760.4" cy="338.9" r="0.82" fill="#dfe8ff" opacity="0.25"/><circle cx="959.4" cy="350.0" r="0.6" fill="#dfe8ff" opacity="0.16"/><circle cx="707.6" cy="376.7" r="1.24" fill="#dfe8ff" opacity="0.42"/>
  <rect width="1200" height="630" fill="url(#vig)"/>

  <!-- 圖版髮絲框 -->
  <rect x="96" y="88" width="1008" height="1" fill="#b0c6f0" fill-opacity="0.22"/>
  <rect x="96" y="520" width="1008" height="1" fill="#b0c6f0" fill-opacity="0.22"/>

  <!-- 右：星圖 -->
  <line x1="815" y1="112" x2="815" y2="490" stroke="#b0c6f0" stroke-opacity=".18" stroke-dasharray="2 9"/><line x1="929" y1="112" x2="929" y2="490" stroke="#b0c6f0" stroke-opacity=".18" stroke-dasharray="2 9"/><line x1="1044" y1="112" x2="1044" y2="490" stroke="#b0c6f0" stroke-opacity=".18" stroke-dasharray="2 9"/><line x1="702" y1="204" x2="1158" y2="204" stroke="#b0c6f0" stroke-opacity=".18" stroke-dasharray="2 9"/><line x1="702" y1="300" x2="1158" y2="300" stroke="#b0c6f0" stroke-opacity=".18" stroke-dasharray="2 9"/><line x1="702" y1="397" x2="1158" y2="397" stroke="#b0c6f0" stroke-opacity=".18" stroke-dasharray="2 9"/>
  <polyline points="771,405 845,352 912,379 1034,383 1069,275 990,232 845,352" fill="none" stroke="#b0c6f0" stroke-opacity=".34" stroke-width="1" stroke-linejoin="round"/>
  <polyline points="1069,275 1100,185" fill="none" stroke="#b0c6f0" stroke-opacity=".34" stroke-width="1" stroke-linejoin="round"/>
  <circle cx="771" cy="405" r="2.6" fill="#dfe8ff" opacity=".75"/><circle cx="912" cy="379" r="2.6" fill="#dfe8ff" opacity=".75"/><circle cx="1069" cy="275" r="2.6" fill="#dfe8ff" opacity=".75"/><circle cx="1034" cy="383" r="2.6" fill="#dfe8ff" opacity=".75"/><circle cx="1100" cy="185" r="2.6" fill="#dfe8ff" opacity=".75"/>
  <g>
    <circle cx="990" cy="232" r="17" fill="#9a8cff" opacity=".16"/>
    <circle cx="990" cy="232" r="11" fill="none" stroke="#9a8cff" stroke-opacity=".6"/>
    <circle cx="990" cy="232" r="4.6" fill="#eef2fd"/>
    <text x="974" y="229" text-anchor="end" font-family="Noto Serif CJK TC, Noto Serif TC, Georgia, serif" font-weight="600" font-size="21" fill="#eef2fd">碎界</text>
    <text x="974" y="248" text-anchor="end" font-family="ui-monospace, Menlo, Consolas, monospace" font-size="12" letter-spacing="2.4" fill="#6d7a97">HV—01</text>
  </g>
  <g>
    <circle cx="845" cy="352" r="17" fill="#6fd6c6" opacity=".16"/>
    <circle cx="845" cy="352" r="11" fill="none" stroke="#6fd6c6" stroke-opacity=".6"/>
    <circle cx="845" cy="352" r="4.6" fill="#eef2fd"/>
    <text x="861" y="349" text-anchor="start" font-family="Noto Serif CJK TC, Noto Serif TC, Georgia, serif" font-weight="600" font-size="21" fill="#eef2fd">Hoshi ID</text>
    <text x="861" y="368" text-anchor="start" font-family="ui-monospace, Menlo, Consolas, monospace" font-size="12" letter-spacing="2.4" fill="#6d7a97">HV—02</text>
  </g>

  <!-- 左：字標與標語 -->
  <text x="96" y="72" font-family="Noto Sans CJK TC, Noto Sans TC, sans-serif" font-weight="500" font-size="17" letter-spacing="8" fill="#98a5c0">獨立遊戲與網路服務開發組織</text>

  <g transform="translate(96 168)">
    <circle cx="21" cy="21" r="19.5" fill="none" stroke="#f0cd94" stroke-opacity="0.45" stroke-width="1.6"/>
    <g stroke="#f0cd94" stroke-opacity="0.75" stroke-width="1.6" stroke-linecap="round">
      <line x1="34.8" y1="34.8" x2="38.6" y2="38.6"/><line x1="7.2" y1="34.8" x2="3.4" y2="38.6"/>
      <line x1="34.8" y1="7.2" x2="38.6" y2="3.4"/><line x1="7.2" y1="7.2" x2="3.4" y2="3.4"/>
    </g>
    <path d="M21 5 Q22.6 19.4 37 21 Q22.6 22.6 21 37 Q19.4 22.6 5 21 Q19.4 19.4 21 5 Z" fill="#f0cd94"/>
  </g>

  <text x="152" y="204" font-family="Noto Serif CJK TC, Noto Serif TC, Georgia, serif" font-weight="600" font-size="62" letter-spacing="3" fill="#eef2fd">Hoshivel</text>
  <text x="96" y="330" font-family="Noto Serif CJK TC, Noto Serif TC, serif" font-weight="600" font-size="52" letter-spacing="12" fill="#f0cd94">少做，做好，做久</text>
  <text x="100" y="386" font-family="Noto Sans CJK TC, Noto Sans TC, sans-serif" font-size="22" letter-spacing="3" fill="#98a5c0">Build less, build well, build to last</text>
  <text x="100" y="440" font-family="Noto Sans CJK TC, Noto Sans TC, sans-serif" font-size="20" letter-spacing="2" fill="#6d7a97">作品，是值得回去的地方。</text>

  <!-- 基線列 -->
  <text x="96" y="566" font-family="ui-monospace, Menlo, Consolas, monospace" font-size="18" letter-spacing="6" fill="#98a5c0">HOSHIVEL.COM</text>
  <text x="1104" y="566" text-anchor="end" font-family="ui-monospace, Menlo, Consolas, monospace" font-size="18" letter-spacing="3" fill="#6d7a97">碎界 SHATTERED REALMS · HOSHI ID</text>
</svg>
